<svg width="48" height="36" viewBox="0 0 48 36" fill="none" xmlns="http://www.w3.org/2000/svg">
<path fill-rule="evenodd" clip-rule="evenodd" d="M10 16V18H26V4H6V2C6 0.896 6.896 0 8 0H28C29.104 0 30 0.896 30 2V6H39.334C41.568 6 42.534 7.152 43.206 8.214C44.394 10.094 46.278 13.078 47.424 14.97C47.8 15.594 48 16.31 48 17.04V26C48 28.178 46.514 30 44 30H42C42 33.312 39.312 36 36 36C32.688 36 30 33.312 30 30H22C22 33.312 19.312 36 16 36C12.688 36 10 33.312 10 30H8C6.896 30 6 29.104 6 28V16H2V12H16V16H10ZM16 27.6C17.324 27.6 18.4 28.676 18.4 30C18.4 31.324 17.324 32.4 16 32.4C14.676 32.4 13.6 31.324 13.6 30C13.6 28.676 14.676 27.6 16 27.6V27.6ZM36 27.6C37.324 27.6 38.4 28.676 38.4 30C38.4 31.324 37.324 32.4 36 32.4C34.676 32.4 33.6 31.324 33.6 30C33.6 28.676 34.676 27.6 36 27.6ZM30 22H10V26H11.53C12.628 24.772 14.224 24 16 24C17.776 24 19.372 24.772 20.47 26H31.53C32.628 24.772 34.224 24 36 24C37.776 24 39.372 24.772 40.47 26H44V16.85L40.578 10.992C40.22 10.378 39.562 10 38.852 10H30V22ZM32 12V18H42L39.146 13.008C38.79 12.384 38.128 12 37.41 12H32ZM0 6H16V10H0V6Z" fill="#C86DD7"/>
</svg>
