<svg width="48" height="48" viewBox="0 0 48 48" fill="none" xmlns="http://www.w3.org/2000/svg">
<path fill-rule="evenodd" clip-rule="evenodd" d="M7.696 38H6C4.408 38 2.882 37.368 1.758 36.242C0.632 35.118 0 33.592 0 32V26C0 11.65 10.754 0 24 0C37.246 0 48 11.65 48 26V32C48 33.592 47.368 35.118 46.242 36.242C45.118 37.368 43.592 38 42 38H40.304C34.924 47.266 26.496 48 24 48C21.504 48 13.076 47.266 7.696 38ZM40 26.248C38.798 26.72 37.462 25.888 37.462 24.654C37.462 24.046 37.418 23.434 37.356 22.824C33.834 22.316 30.12 18.972 29.958 15.378C27.328 19.388 20.908 23.718 15.87 23.718C18.042 22.32 19.548 18.172 19.676 16.702C18.514 18.886 13.88 22.974 10.574 23.676L10.538 24.654C10.538 25.892 9.2 26.718 8 26.248V33.79C8.574 34.302 9.264 34.718 10.082 34.978C10.532 35.122 10.906 35.426 11.124 35.826C15.536 43.918 21.976 44 24 44C25.858 44 31.438 43.93 35.754 37.662C33.612 38.528 31.224 38.87 28.236 38.968C27.496 40.168 25.876 41 24 41C21.424 41 19.334 39.432 19.334 37.5C19.334 35.568 21.424 34 24 34C25.866 34 27.476 34.822 28.224 36.01C32.024 35.958 36.896 35.342 40 30.72V26.248ZM18 25C19.372 25 20.486 26.344 20.486 28C20.486 29.656 19.372 31 18 31C16.628 31 15.514 29.656 15.514 28C15.514 26.344 16.628 25 18 25ZM30 25C31.372 25 32.486 26.344 32.486 28C32.486 29.656 31.372 31 30 31C28.628 31 27.514 29.656 27.514 28C27.514 26.344 28.628 25 30 25V25ZM40.956 22H43.67C41.958 11.764 33.796 4 24 4C14.204 4 6.042 11.764 4.33 22H7.044C8.084 13.954 13.866 6.556 24 6.556C34.134 6.556 39.916 13.954 40.956 22Z" fill="#C86DD7"/>
</svg>
