<svg width="36" height="48" viewBox="0 0 36 48" fill="none" xmlns="http://www.w3.org/2000/svg">
<rect width="36" height="48" fill="#F2F2F2"/>
<g clip-path="url(#clip0_0_3337)">
<rect width="1440" height="5616" transform="translate(-1035 -864)" fill="white"/>
<rect x="-1035" y="-96" width="1440" height="288" fill="#FDF2FF"/>
<path fill-rule="evenodd" clip-rule="evenodd" d="M8.002 8.53V13C8.002 13.614 8.546 14.078 9.146 13.988C9.636 13.916 10 13.496 10 13V8.536C10.004 5.116 12.832 2 15.926 2L16.25 2.03C16.982 1.464 17.78 1.004 18.626 0.664C17.814 0.25 16.91 0 15.926 0C11.734 0 8.01 4.01 8.002 8.53ZM28 8.582L27.998 12.08C27.998 12.572 27.638 12.99 27.152 13.064C26.546 13.154 26 12.684 26 12.074V8.582C26.002 7.2 25.538 5.974 24.694 5.13C23.958 4.39 23 4 21.926 4C18.832 4 16.006 7.116 16 10.536V13.898C16 14.392 15.638 14.812 15.15 14.886C14.546 14.978 14 14.508 14 13.898L14.002 10.532C14.01 6.01 17.734 2 21.926 2C25.36 2 28.004 4.774 28 8.582ZM7.33 18.136L0 14.816V42.816L7.33 48L36 43.69V14L7.33 18.136ZM4 21.018L6 21.924V42.16L4 40.746V21.018ZM10 43.554L32 40.248V18.618L10 21.792V43.554Z" fill="#C86DD7"/>
</g>
<defs>
<clipPath id="clip0_0_3337">
<rect width="1440" height="5616" fill="white" transform="translate(-1035 -864)"/>
</clipPath>
</defs>
</svg>
