<svg width="24" height="22" viewBox="0 0 24 22" fill="none" xmlns="http://www.w3.org/2000/svg">
<path fill-rule="evenodd" clip-rule="evenodd" d="M0 6.192C0 2.187 3.098 0 6.281 0C8.478 0 10.715 1.042 12 3.248C13.28 1.052 15.522 0.01 17.726 0.01C20.903 0.01 24 2.181 24 6.192C24 10.2622 19.7525 14.4126 14.3939 19.6485C13.6161 20.4084 12.815 21.1912 12 22C11.185 21.1912 10.3839 20.4084 9.60613 19.6485C4.24754 14.4126 0 10.2622 0 6.192ZM12 7.031C11.253 5.491 9.516 2.001 6.28 2C3.965 1.999 2 3.516 2 6.192C2 9.42241 6.17935 13.5051 11.0414 18.2547C11.3584 18.5643 11.6782 18.8768 12 19.192C12.3227 18.8759 12.6434 18.5626 12.9613 18.2521C17.8206 13.5053 22 9.42269 22 6.192C22 3.319 19.784 2.01 17.726 2.01C14.469 2.01 12.75 5.484 12 7.031Z" fill="white"/>
</svg>
